# xmcd
#
# Track frame offsets:
#	150
#	14409
#	28274
#	42078
#	54377
#	71268
#	84090
#	97818
#	116738
#	132105
#	148468
#	165912
#	185190
#
# Disc length: 2730 seconds
#
# Revision: 3
# Processed by: cddbd v1.5.2PL0 Copyright (c) Steve Scherf et al.
# Submitted via: audiograbber 1.83.01
#
DISCID=a90aa80d
DTITLE=J. J. Johnson - Qadromania, CD 2
DYEAR=1900
DGENRE=Jazz
TTITLE0=Elora - Take 1
TTITLE1=Elora - Take 2
TTITLE2=Teapot - Take 1
TTITLE3=Teapot - Take 2
TTITLE4=Blue Mode - Take 1
TTITLE5=Blue Mode - Take 2
TTITLE6=Chance It
TTITLE7=Dear Old Stockholm
TTITLE8=Woody 'N You
TTITLE9=Capri
TTITLE10=Lover Man
TTITLE11=Turnpike
TTITLE12=Sketch
EXTD=
EXTT0=
EXTT1=
EXTT2=
EXTT3=
EXTT4=
EXTT5=
EXTT6=
EXTT7=
EXTT8=
EXTT9=
EXTT10=
EXTT11=
EXTT12=
PLAYORDER=
